<svg width="512" height="512" viewBox="0 0 512 512" fill="none" xmlns="http://www.w3.org/2000/svg">
<path d="M149.143 386.286C147.619 388 145.714 387.714 143.429 385.428C140.952 383.333 140.571 381.524 142.286 380C143.81 378.286 145.714 378.571 148 380.857C150.286 382.952 150.667 384.762 149.143 386.286ZM137.143 368.857C138.857 371.143 138.857 372.952 137.143 374.286C135.619 375.428 134 374.762 132.286 372.286C130.571 369.809 130.571 368.095 132.286 367.143C134 365.809 135.619 366.381 137.143 368.857ZM119.714 351.714C118.762 353.047 117.524 353.238 116 352.286C114.095 351.333 113.429 350.19 114 348.857C114.571 347.905 115.81 347.714 117.714 348.286C119.619 349.238 120.286 350.381 119.714 351.714ZM128.571 361.428C127.429 362.762 125.905 362.476 124 360.571C122.286 358.476 122.095 356.952 123.429 356C124.571 354.857 126.095 355.143 128 356.857C129.714 358.952 129.905 360.476 128.571 361.428ZM165.429 393.428C164.667 395.714 162.857 396.286 160 395.143C156.762 394.381 155.524 392.952 156.286 390.857C157.048 388.762 158.857 388.095 161.714 388.857C164.762 389.809 166 391.333 165.429 393.428ZM183.429 394.857C183.429 396.952 181.905 398 178.857 398C175.619 398.381 174 397.333 174 394.857C174 392.762 175.524 391.714 178.571 391.714C181.81 391.333 183.429 392.381 183.429 394.857ZM200 392C200.381 393.905 199.048 395.238 196 396C192.952 396.762 191.238 396 190.857 393.714C190.476 391.428 191.81 390 194.857 389.428C197.905 389.047 199.619 389.905 200 392ZM475.429 118.857V393.143C475.429 415.809 467.381 435.19 451.286 451.286C435.191 467.381 415.81 475.428 393.143 475.428H329.143C326.095 475.428 323.762 475.333 322.143 475.143C320.524 474.952 318.667 474.476 316.571 473.714C314.476 472.952 312.952 471.571 312 469.571C311.048 467.571 310.571 464.952 310.571 461.714V393.428C310.571 374.952 305.619 361.428 295.714 352.857C306.571 351.714 316.333 350 325 347.714C333.667 345.428 342.619 341.714 351.857 336.571C361.095 331.428 368.81 325.095 375 317.571C381.191 310.047 386.238 300.047 390.143 287.571C394.048 275.095 396 260.762 396 244.571C396 221.524 388.476 201.905 373.429 185.714C380.476 168.381 379.714 148.952 371.143 127.428C365.81 125.714 358.095 126.762 348 130.571C337.905 134.381 329.143 138.571 321.714 143.143L310.857 150C293.143 145.047 274.857 142.571 256 142.571C237.143 142.571 218.857 145.047 201.143 150C198.095 147.905 194.048 145.333 189 142.286C183.952 139.238 176 135.571 165.143 131.286C154.286 127 146.095 125.714 140.571 127.428C132.19 148.952 131.524 168.381 138.571 185.714C123.524 201.905 116 221.524 116 244.571C116 260.762 117.952 275.047 121.857 287.428C125.762 299.809 130.762 309.809 136.857 317.428C142.952 325.047 150.619 331.428 159.857 336.571C169.095 341.714 178.048 345.428 186.714 347.714C195.381 350 205.143 351.714 216 352.857C208.381 359.714 203.714 369.524 202 382.286C198 384.19 193.714 385.619 189.143 386.571C184.571 387.524 179.143 388 172.857 388C166.571 388 160.333 385.952 154.143 381.857C147.952 377.762 142.667 371.809 138.286 364C134.667 357.905 130.048 352.952 124.429 349.143C118.81 345.333 114.095 343.047 110.286 342.286L104.571 341.428C100.571 341.428 97.8095 341.857 96.2857 342.714C94.7619 343.571 94.2857 344.667 94.8572 346C95.4286 347.333 96.2857 348.667 97.4286 350C98.5714 351.333 99.8095 352.476 101.143 353.428L103.143 354.857C107.333 356.762 111.476 360.381 115.571 365.714C119.667 371.047 122.667 375.905 124.571 380.286L127.429 386.857C129.905 394.095 134.095 399.952 140 404.428C145.905 408.905 152.286 411.762 159.143 413C166 414.238 172.619 414.905 179 415C185.381 415.095 190.667 414.762 194.857 414L201.429 412.857C201.429 420.095 201.476 429.905 201.571 442.286C201.667 454.667 201.714 461.143 201.714 461.714C201.714 465.905 200.667 469.095 198.571 471.286C196.476 473.476 194.381 474.714 192.286 475C190.19 475.286 187.048 475.428 182.857 475.428H118.857C96.1905 475.428 76.8095 467.381 60.7143 451.286C44.6191 435.19 36.5714 415.809 36.5714 393.143V118.857C36.5714 96.1903 44.6191 76.8094 60.7143 60.7141C76.8095 44.6189 96.1905 36.5713 118.857 36.5713H393.143C415.81 36.5713 435.191 44.6189 451.286 60.7141C467.381 76.8094 475.429 96.1903 475.429 118.857Z" fill="white"/>
</svg>
