<svg width="697" height="453" viewBox="0 0 697 453" fill="none" xmlns="http://www.w3.org/2000/svg">
<circle cx="470.5" cy="226.5" r="223.5" stroke="white" stroke-width="6"/>
<path d="M380.536 230.536C382.488 228.583 382.488 225.417 380.536 223.464L348.716 191.645C346.763 189.692 343.597 189.692 341.645 191.645C339.692 193.597 339.692 196.763 341.645 198.716L369.929 227L341.645 255.284C339.692 257.237 339.692 260.403 341.645 262.355C343.597 264.308 346.763 264.308 348.716 262.355L380.536 230.536ZM0 232H9.425L9.425 222H0L0 232ZM28.275 232H47.125V222H28.275V232ZM65.975 232H84.825V222H65.975V232ZM103.675 232H122.525V222H103.675V232ZM141.375 232H160.225V222H141.375V232ZM179.075 232H197.925V222H179.075V232ZM216.775 232H235.625V222H216.775V232ZM254.475 232H273.325V222H254.475V232ZM292.175 232H311.025V222H292.175V232ZM329.875 232H348.725V222H329.875V232ZM367.575 232H377V222H367.575V232ZM384.071 234.071C387.976 230.166 387.976 223.834 384.071 219.929L320.431 156.289C316.526 152.384 310.195 152.384 306.289 156.289C302.384 160.195 302.384 166.526 306.289 170.431L362.858 227L306.289 283.569C302.384 287.474 302.384 293.805 306.289 297.711C310.195 301.616 316.526 301.616 320.431 297.711L384.071 234.071ZM0 237H9.425L9.425 217H0L0 237ZM28.275 237H47.125V217H28.275L28.275 237ZM65.975 237H84.825V217H65.975V237ZM103.675 237H122.525V217H103.675V237ZM141.375 237H160.225V217H141.375V237ZM179.075 237H197.925V217H179.075V237ZM216.775 237H235.625V217H216.775V237ZM254.475 237H273.325V217H254.475V237ZM292.175 237L311.025 237V217L292.175 217V237ZM329.875 237H348.725V217H329.875V237ZM367.575 237H377V217H367.575V237Z" fill="white"/>
</svg>
