<svg width="697" height="453" viewBox="0 0 697 453" fill="none" xmlns="http://www.w3.org/2000/svg">
<circle cx="226.5" cy="226.5" r="223.5" transform="rotate(-180 226.5 226.5)" stroke="white" stroke-width="6"/>
<path d="M316.464 222.464C314.512 224.417 314.512 227.583 316.464 229.536L348.284 261.355C350.237 263.308 353.403 263.308 355.355 261.355C357.308 259.403 357.308 256.237 355.355 254.284L327.071 226L355.355 197.716C357.308 195.763 357.308 192.597 355.355 190.645C353.403 188.692 350.237 188.692 348.284 190.645L316.464 222.464ZM697 221H687.575V231H697V221ZM668.725 221H649.875V231H668.725V221ZM631.025 221H612.175V231H631.025V221ZM593.325 221L574.475 221V231L593.325 231V221ZM555.625 221H536.775V231H555.625V221ZM517.925 221H499.075V231H517.925V221ZM480.225 221H461.375V231H480.225V221ZM442.525 221H423.675V231H442.525V221ZM404.825 221H385.975V231H404.825V221ZM367.125 221L348.275 221V231L367.125 231V221ZM329.425 221H320V231H329.425V221ZM312.929 218.929C309.024 222.834 309.024 229.166 312.929 233.071L376.569 296.711C380.474 300.616 386.805 300.616 390.711 296.711C394.616 292.805 394.616 286.474 390.711 282.569L334.142 226L390.711 169.431C394.616 165.526 394.616 159.195 390.711 155.289C386.805 151.384 380.474 151.384 376.569 155.289L312.929 218.929ZM697 216H687.575L687.575 236H697V216ZM668.725 216H649.875V236H668.725V216ZM631.025 216H612.175V236H631.025V216ZM593.325 216H574.475V236H593.325V216ZM555.625 216H536.775V236H555.625V216ZM517.925 216H499.075V236H517.925V216ZM480.225 216H461.375V236H480.225V216ZM442.525 216H423.675V236H442.525V216ZM404.825 216H385.975V236H404.825V216ZM367.125 216L348.275 216V236L367.125 236V216ZM329.425 216H320V236H329.425V216Z" fill="white"/>
</svg>
