<svg width="512" height="512" viewBox="0 0 512 512" fill="none" xmlns="http://www.w3.org/2000/svg">
<g clip-path="url(#clip0_308_165)">
<path d="M256 0C114.643 0 0 114.643 0 256C0 397.357 114.643 512 256 512C397.357 512 512 397.357 512 256C512 114.643 397.357 0 256 0ZM276.591 466.365C275.478 466.365 274.365 466.365 272.696 466.922V346.157C301.635 345.6 327.791 345.043 351.722 343.374C330.574 408.487 291.061 451.896 276.591 466.365ZM235.409 466.365C220.383 451.339 181.426 407.93 160.278 343.374C183.652 345.043 210.365 346.157 239.304 346.157V466.922C238.191 466.922 237.078 466.365 235.409 466.365ZM44.5217 256C44.5217 242.087 46.1913 228.174 48.4174 214.817C60.6609 212.591 84.0348 209.252 116.87 205.913C114.087 222.052 112.417 238.748 112.417 256.557C112.417 274.365 114.087 291.061 116.313 306.643C84.0348 303.304 60.1044 299.965 47.8609 297.739C46.1913 283.826 44.5217 269.913 44.5217 256ZM146.365 256C146.365 237.078 148.591 219.27 151.93 202.574C177.53 200.904 206.47 199.235 239.304 199.235V312.765C207.026 312.209 177.53 311.096 151.374 308.87C148.591 292.73 146.365 274.922 146.365 256ZM276.035 45.6348C291.061 60.6609 329.461 105.183 351.165 168.626C327.791 166.957 301.635 165.843 272.696 165.843V45.0783C273.809 45.0783 274.922 45.6348 276.035 45.6348ZM239.304 45.0783V165.843C210.365 166.4 184.209 166.957 160.835 168.626C181.983 105.183 220.939 60.6609 235.409 45.6348C237.078 45.6348 238.191 45.0783 239.304 45.0783ZM272.696 312.765V199.235C304.974 199.791 334.47 200.904 360.07 202.574C363.409 219.27 365.635 237.078 365.635 256C365.635 274.922 363.965 292.73 360.626 309.426C335.026 311.096 305.53 312.209 272.696 312.765ZM394.574 205.913C427.409 209.252 450.783 212.591 463.026 214.817C465.809 228.174 467.478 242.087 467.478 256C467.478 269.913 465.809 283.826 463.583 297.183C451.339 299.409 427.965 302.748 395.13 306.087C397.913 289.948 399.026 273.252 399.026 255.443C399.026 238.748 397.357 221.496 394.574 205.913ZM453.009 179.2C437.426 176.974 415.165 174.191 386.783 171.409C373.426 123.548 350.052 85.1478 330.574 57.8783C386.783 79.0261 431.304 123.548 453.009 179.2ZM181.426 57.8783C161.391 84.5913 138.574 122.991 125.217 170.852C97.3913 173.078 75.1304 176.417 58.9913 178.643C80.6957 123.548 125.774 79.0261 181.426 57.8783ZM58.9913 332.8C74.5739 335.026 96.8348 337.809 124.661 340.591C138.017 388.452 160.278 426.852 180.313 453.565C124.661 431.861 80.6957 387.896 58.9913 332.8ZM331.687 453.565C351.722 426.852 373.983 389.009 387.339 341.148C415.165 338.922 437.426 335.583 453.009 333.357C431.304 387.896 387.339 431.861 331.687 453.565Z" fill="white"/>
</g>
<defs>
<clipPath id="clip0_308_165">
<rect width="512" height="512" fill="white"/>
</clipPath>
</defs>
</svg>
