<svg width="512" height="512" viewBox="0 0 512 512" fill="none" xmlns="http://www.w3.org/2000/svg">
<g clip-path="url(#clip0_215_50)">
<path d="M469.333 0H42.6667C31.3508 0 20.4983 4.49523 12.4968 12.4968C4.49523 20.4983 0 31.3508 0 42.6667L0 469.333C0 480.649 4.49523 491.502 12.4968 499.503C20.4983 507.505 31.3508 512 42.6667 512H469.333C480.649 512 491.502 507.505 499.503 499.503C507.505 491.502 512 480.649 512 469.333V42.6667C512 31.3508 507.505 20.4983 499.503 12.4968C491.502 4.49523 480.649 0 469.333 0ZM384.256 461.589C374.742 461.568 365.398 459.074 357.139 454.352C348.881 449.629 341.992 442.841 337.149 434.652C332.306 426.464 329.675 417.157 329.515 407.644C329.354 398.132 331.67 388.742 336.235 380.395L261.013 201.429C260.693 200.832 259.52 200.832 259.52 201.728L255.68 349.611C254.784 377.749 218.325 386.048 207.659 359.979C191.957 332.715 148.096 214.464 108.672 113.131C107.499 113.131 106.304 113.429 104.832 113.429C98.676 113.429 92.6582 111.604 87.5397 108.184C82.4212 104.764 78.4317 99.9026 76.0759 94.2152C73.7201 88.5277 73.1038 82.2695 74.3047 76.2318C75.5057 70.194 78.4701 64.648 82.8231 60.2951C87.176 55.9421 92.722 52.9777 98.7597 51.7767C104.797 50.5758 111.056 51.1921 116.743 53.5479C122.431 55.9037 127.292 59.8932 130.712 65.0117C134.132 70.1302 135.957 76.148 135.957 82.304C135.947 87.1013 134.849 91.8337 132.747 96.1457C130.644 100.458 127.592 104.237 123.819 107.2L217.472 293.888C217.545 294.003 217.652 294.092 217.779 294.142C217.905 294.192 218.044 294.2 218.176 294.165C218.308 294.134 218.427 294.061 218.516 293.958C218.604 293.854 218.657 293.725 218.667 293.589C221.333 251.435 218.965 216.533 228.139 179.499C238.827 140.373 268.459 139.179 283.797 166.741L388.693 351.957L388.928 351.979C402.739 353.567 415.436 360.328 424.464 370.899C433.492 381.47 438.182 395.068 437.59 408.958C436.998 422.847 431.168 435.997 421.273 445.762C411.378 455.526 398.152 461.182 384.256 461.589Z" fill="#247CF2"/>
</g>
<defs>
<clipPath id="clip0_215_50">
<rect width="512" height="512" fill="white"/>
</clipPath>
</defs>
</svg>
