<svg width="366" height="97" viewBox="0 0 366 97" fill="none" xmlns="http://www.w3.org/2000/svg">
<path d="M28.5767 48.813H10.083V38.1606H28.5767C31.6014 38.1606 34.0508 37.6675 35.9248 36.6812C37.8317 35.6619 39.229 34.2811 40.1167 32.5386C41.0044 30.7632 41.4482 28.7412 41.4482 26.4727C41.4482 24.2699 41.0044 22.215 40.1167 20.3081C39.229 18.4012 37.8317 16.856 35.9248 15.6724C34.0508 14.4888 31.6014 13.897 28.5767 13.897H14.5215V75H0.959473V3.19531H28.5767C34.1659 3.19531 38.9331 4.19808 42.8784 6.20361C46.8566 8.17627 49.8813 10.9215 51.9526 14.4395C54.0568 17.9245 55.1089 21.9027 55.1089 26.374C55.1089 31.0098 54.0568 35.0044 51.9526 38.3579C49.8813 41.7114 46.8566 44.2923 42.8784 46.1006C38.9331 47.9089 34.1659 48.813 28.5767 48.813ZM77.7944 32.5386V75H64.7749V21.6396H77.104L77.7944 32.5386ZM94.0195 21.2944L93.8223 33.4263C93.099 33.2948 92.277 33.1961 91.3564 33.1304C90.4688 33.0646 89.6304 33.0317 88.8413 33.0317C86.8358 33.0317 85.0768 33.3112 83.5645 33.8701C82.0521 34.3962 80.7863 35.1688 79.7671 36.188C78.7808 37.2072 78.0246 38.4565 77.4985 39.936C76.9725 41.3826 76.6766 43.0265 76.6108 44.8677L73.7998 44.5225C73.7998 41.1361 74.145 37.9963 74.8354 35.103C75.5259 32.2098 76.5286 29.6782 77.8438 27.5083C79.1589 25.3384 80.8027 23.6616 82.7754 22.478C84.7809 21.2616 87.0824 20.6533 89.6797 20.6533C90.403 20.6533 91.1756 20.7191 91.9976 20.8506C92.8524 20.9492 93.5264 21.0972 94.0195 21.2944ZM97.4717 48.8623V47.8267C97.4717 43.9142 98.0306 40.3141 99.1484 37.0264C100.266 33.7057 101.894 30.8289 104.031 28.396C106.168 25.9631 108.782 24.0726 111.872 22.7246C114.963 21.3438 118.48 20.6533 122.426 20.6533C126.437 20.6533 129.988 21.3438 133.078 22.7246C136.201 24.0726 138.832 25.9631 140.969 28.396C143.106 30.8289 144.733 33.7057 145.851 37.0264C146.969 40.3141 147.528 43.9142 147.528 47.8267V48.8623C147.528 52.7419 146.969 56.342 145.851 59.6626C144.733 62.9504 143.106 65.8271 140.969 68.293C138.832 70.7259 136.218 72.6164 133.127 73.9644C130.037 75.3123 126.503 75.9863 122.524 75.9863C118.579 75.9863 115.045 75.3123 111.921 73.9644C108.798 72.6164 106.168 70.7259 104.031 68.293C101.894 65.8271 100.266 62.9504 99.1484 59.6626C98.0306 56.342 97.4717 52.7419 97.4717 48.8623ZM110.491 47.8267V48.8623C110.491 51.1966 110.721 53.383 111.182 55.4214C111.642 57.4598 112.349 59.2516 113.302 60.7969C114.256 62.3421 115.489 63.5586 117.001 64.4463C118.546 65.3011 120.387 65.7285 122.524 65.7285C124.629 65.7285 126.437 65.3011 127.949 64.4463C129.462 63.5586 130.694 62.3421 131.648 60.7969C132.634 59.2516 133.358 57.4598 133.818 55.4214C134.278 53.383 134.508 51.1966 134.508 48.8623V47.8267C134.508 45.5252 134.278 43.3717 133.818 41.3662C133.358 39.3278 132.634 37.536 131.648 35.9907C130.694 34.4126 129.445 33.1797 127.9 32.292C126.388 31.3714 124.563 30.9111 122.426 30.9111C120.322 30.9111 118.513 31.3714 117.001 32.292C115.489 33.1797 114.256 34.4126 113.302 35.9907C112.349 37.536 111.642 39.3278 111.182 41.3662C110.721 43.3717 110.491 45.5252 110.491 47.8267ZM157.638 21.6396H170.756V78.9453C170.756 82.7262 170.065 85.9318 168.685 88.562C167.337 91.1922 165.38 93.1813 162.816 94.5293C160.251 95.8773 157.112 96.5513 153.396 96.5513C152.246 96.5513 151.095 96.4855 149.944 96.354C148.794 96.2225 147.659 96.0088 146.542 95.7129L146.591 85.6523C147.314 85.7839 148.054 85.8825 148.81 85.9482C149.566 86.0469 150.322 86.0962 151.079 86.0962C152.492 86.0962 153.676 85.8496 154.629 85.3564C155.616 84.8633 156.355 84.0907 156.849 83.0386C157.375 81.9865 157.638 80.6221 157.638 78.9453V21.6396ZM156.553 7.68311C156.553 5.74333 157.21 4.13232 158.525 2.8501C159.873 1.56787 161.682 0.926758 163.95 0.926758C166.219 0.926758 168.011 1.56787 169.326 2.8501C170.674 4.13232 171.348 5.74333 171.348 7.68311C171.348 9.59001 170.674 11.1846 169.326 12.4668C168.011 13.749 166.219 14.3901 163.95 14.3901C161.682 14.3901 159.873 13.749 158.525 12.4668C157.21 11.1846 156.553 9.59001 156.553 7.68311ZM206.806 75.9863C202.762 75.9863 199.129 75.3288 195.907 74.0137C192.685 72.6986 189.94 70.8739 187.671 68.5396C185.436 66.1724 183.71 63.4271 182.493 60.3037C181.31 57.1475 180.718 53.7611 180.718 50.1445V48.1719C180.718 44.0622 181.31 40.3306 182.493 36.9771C183.677 33.5907 185.354 30.681 187.523 28.248C189.693 25.8151 192.291 23.9411 195.315 22.626C198.34 21.3109 201.677 20.6533 205.327 20.6533C209.108 20.6533 212.445 21.2944 215.338 22.5767C218.231 23.826 220.648 25.6014 222.587 27.9028C224.527 30.2043 225.99 32.966 226.977 36.188C227.963 39.3771 228.456 42.9115 228.456 46.791V52.2651H186.636V43.2896H215.634V42.3032C215.568 40.2319 215.174 38.3415 214.45 36.6318C213.727 34.8893 212.609 33.5085 211.097 32.4893C209.584 31.4372 207.628 30.9111 205.228 30.9111C203.288 30.9111 201.595 31.3385 200.148 32.1934C198.735 33.0153 197.551 34.1989 196.598 35.7441C195.677 37.2565 194.987 39.0648 194.526 41.1689C194.066 43.2731 193.836 45.6074 193.836 48.1719V50.1445C193.836 52.3802 194.132 54.4515 194.724 56.3584C195.348 58.2653 196.252 59.9256 197.436 61.3394C198.653 62.7202 200.099 63.8052 201.776 64.5942C203.486 65.3504 205.425 65.7285 207.595 65.7285C210.324 65.7285 212.79 65.2025 214.993 64.1504C217.228 63.0654 219.168 61.4709 220.812 59.3667L227.371 66.1724C226.253 67.8162 224.741 69.3944 222.834 70.9067C220.96 72.4191 218.691 73.652 216.028 74.6055C213.365 75.526 210.291 75.9863 206.806 75.9863ZM259.082 65.7285C260.923 65.7285 262.567 65.3669 264.013 64.6436C265.46 63.9202 266.611 62.901 267.465 61.5859C268.353 60.2708 268.83 58.742 268.896 56.9995H281.175C281.11 60.616 280.09 63.8545 278.118 66.7148C276.145 69.5752 273.515 71.8438 270.227 73.5205C266.972 75.1644 263.323 75.9863 259.279 75.9863C255.169 75.9863 251.585 75.2959 248.528 73.915C245.47 72.5342 242.922 70.6108 240.884 68.145C238.878 65.6792 237.366 62.8188 236.347 59.564C235.36 56.3091 234.867 52.8241 234.867 49.1089V47.5308C234.867 43.8156 235.36 40.3306 236.347 37.0757C237.366 33.8208 238.878 30.9604 240.884 28.4946C242.922 26.0288 245.47 24.1055 248.528 22.7246C251.585 21.3438 255.153 20.6533 259.229 20.6533C263.536 20.6533 267.317 21.4917 270.572 23.1685C273.86 24.8452 276.424 27.2124 278.266 30.27C280.14 33.3276 281.11 36.9277 281.175 41.0703H268.896C268.83 39.1634 268.402 37.4538 267.613 35.9414C266.824 34.429 265.706 33.2126 264.26 32.292C262.813 31.3714 261.054 30.9111 258.983 30.9111C256.78 30.9111 254.939 31.3714 253.459 32.292C252.013 33.2126 250.879 34.4784 250.057 36.0894C249.268 37.6675 248.709 39.4429 248.38 41.4155C248.084 43.3553 247.936 45.3937 247.936 47.5308V49.1089C247.936 51.2788 248.084 53.3501 248.38 55.3228C248.709 57.2954 249.268 59.0708 250.057 60.6489C250.879 62.1942 252.013 63.4271 253.459 64.3477C254.939 65.2682 256.813 65.7285 259.082 65.7285ZM315.105 21.6396V31.0098H284.529V21.6396H315.105ZM292.715 8.52148H305.784V59.6133C305.784 61.1914 305.998 62.4079 306.425 63.2627C306.853 64.1175 307.494 64.6929 308.349 64.9888C309.203 65.2847 310.223 65.4326 311.406 65.4326C312.261 65.4326 313.05 65.3833 313.773 65.2847C314.497 65.186 315.105 65.0874 315.598 64.9888L315.647 74.7534C314.562 75.1151 313.33 75.411 311.949 75.6411C310.601 75.8713 309.072 75.9863 307.362 75.9863C304.436 75.9863 301.872 75.4932 299.669 74.5068C297.466 73.4876 295.757 71.8602 294.54 69.6245C293.324 67.356 292.715 64.3641 292.715 60.6489V8.52148ZM353.128 60.4023C353.128 59.2845 352.832 58.2817 352.24 57.394C351.648 56.5063 350.531 55.7008 348.887 54.9775C347.276 54.2214 344.909 53.5145 341.785 52.8569C339.023 52.2651 336.475 51.5254 334.141 50.6377C331.807 49.75 329.801 48.6815 328.125 47.4321C326.448 46.1499 325.133 44.654 324.179 42.9443C323.259 41.2018 322.798 39.1963 322.798 36.9277C322.798 34.7249 323.275 32.6536 324.229 30.7139C325.182 28.7412 326.563 27.0151 328.371 25.5356C330.179 24.0233 332.382 22.8397 334.979 21.9849C337.577 21.0972 340.503 20.6533 343.758 20.6533C348.295 20.6533 352.191 21.3931 355.446 22.8726C358.734 24.3521 361.249 26.3905 362.991 28.9878C364.734 31.5522 365.605 34.4455 365.605 37.6675H352.585C352.585 36.2537 352.257 34.9715 351.599 33.8208C350.974 32.6701 350.005 31.7495 348.689 31.0591C347.374 30.3358 345.714 29.9741 343.708 29.9741C341.9 29.9741 340.371 30.27 339.122 30.8618C337.906 31.4536 336.985 32.2262 336.36 33.1797C335.736 34.1331 335.423 35.1852 335.423 36.3359C335.423 37.1908 335.588 37.9634 335.917 38.6538C336.278 39.3114 336.854 39.9196 337.643 40.4785C338.432 41.0374 339.5 41.547 340.848 42.0073C342.229 42.4676 343.922 42.9115 345.928 43.3389C349.906 44.1279 353.375 45.18 356.333 46.4951C359.325 47.7773 361.66 49.487 363.336 51.624C365.013 53.7611 365.852 56.4899 365.852 59.8105C365.852 62.1777 365.342 64.3477 364.323 66.3203C363.304 68.2601 361.824 69.9533 359.884 71.3999C357.944 72.8465 355.627 73.9808 352.931 74.8027C350.235 75.5918 347.194 75.9863 343.807 75.9863C338.908 75.9863 334.766 75.1151 331.379 73.3726C327.993 71.5972 325.429 69.3615 323.686 66.6655C321.944 63.9367 321.072 61.1092 321.072 58.1831H333.549C333.648 60.2544 334.207 61.9147 335.226 63.1641C336.245 64.4134 337.528 65.3175 339.073 65.8765C340.651 66.4025 342.311 66.6655 344.054 66.6655C346.026 66.6655 347.687 66.4025 349.035 65.8765C350.383 65.3175 351.402 64.5778 352.092 63.6572C352.783 62.7038 353.128 61.6188 353.128 60.4023Z" fill="white"/>
</svg>
